#N canvas 214 455 575 441 12;
#X text 436 11 fakedac~ AV patch;
#X text 401 30 m-onz : m-onz.net 2022;
#X msg 26 138 bang;
#X obj 26 243 netsend -u -b;
#X msg 156 242 disconnect;
#X obj 26 190 list prepend send;
#X obj 26 216 list trim;
#X obj 155 190 loadbang;
#X msg 155 214 connect localhost 12000;
#X obj 26 165 oscformat /pulse;
#X obj 80 123 bng 15 250 50 0 empty empty empty 17 7 0 10 #fcfcfc #000000
#000000;
#X obj 26 38 tgl 15 0 empty empty empty 17 7 0 10 #fcfcfc #000000 #000000
0 1;
#X obj 26 84 metro 1000;
#X floatatom 95 57 5 0 0 0 - - - 0;
#X connect 2 0 9 0;
#X connect 4 0 3 0;
#X connect 5 0 6 0;
#X connect 6 0 3 0;
#X connect 7 0 8 0;
#X connect 8 0 3 0;
#X connect 9 0 5 0;
#X connect 11 0 12 0;
#X connect 12 0 2 0;
#X connect 12 0 10 0;
#X connect 13 0 12 1;
